<svg viewBox="0 0 394 506" fill="none" xmlns="http://www.w3.org/2000/svg">
<path d="M134.41 273.746C134.41 273.746 138.857 316.081 131.99 324.627C125.123 333.173 121.69 338.345 121.69 338.345C121.69 338.345 125.799 447.979 208.257 457.199C220.415 459.111 244.73 459.111 251.935 434.036C256.494 421.892 257.282 403.676 257.282 403.676L268.427 377.307C268.483 377.251 143.36 240.968 134.41 273.746Z" fill="#AF7D6F"/>
<path d="M261.222 394.399L257.282 403.676C257.282 403.676 254.749 440.501 242.929 449.328C231.109 458.099 204.486 463.271 171.39 444.043C138.294 424.759 120.057 345.092 121.69 338.402C124.448 334.522 125.799 332.723 125.799 332.723C125.799 332.723 124.504 329.406 119.101 334.41C113.697 339.414 105.367 350.208 100.751 352.457C96.136 354.706 93.7157 354.762 93.7157 354.762C93.7157 354.762 88.9314 388.271 107.055 418.125C125.179 447.979 140.996 465.464 149.776 471.086C158.557 476.708 227.507 488.346 255.312 465.464C260.715 460.741 267.807 401.595 261.222 394.399Z" fill="#10144C"/>
<path d="M93.7157 354.65C93.7157 354.65 93.7157 354.706 93.7157 354.818C94.166 354.537 93.7157 354.65 93.7157 354.65Z" fill="#292C67"/>
<path d="M346.551 421.948C336.983 407.724 325.951 408.623 320.716 406.88C315.481 405.137 292.292 395.298 288.183 394.68C284.074 394.062 266.344 382.199 266.344 382.199L261.166 394.399C261.166 394.399 262.911 455.006 250.134 467.769C237.357 480.531 150.001 467.769 150.001 467.769C150.001 467.769 126.474 448.035 109.082 421.386C92.2523 395.636 93.6031 357.461 93.7157 354.818C93.1528 355.156 91.1266 356.055 84.9914 358.417C73.9594 362.746 66.6986 369.717 51.3326 377.307C35.9666 384.897 15.8163 402.551 15.8163 402.551V430.55L119.101 479.294C180.565 479.294 242.085 479.294 303.549 479.294L346.551 421.948Z" fill="#292C67"/>
<path d="M146.005 273.69L156.08 306.524C156.08 306.524 159.851 322.322 181.634 334.41C203.417 346.498 244.167 372.079 244.167 372.079C244.167 372.079 251.147 378.432 268.539 377.87C285.931 377.251 297.245 373.709 306.476 356.168C315.707 338.57 330.003 322.603 336.026 306.355C342.048 290.107 347.508 278.469 347.508 278.469C347.508 278.469 351.898 271.16 352.461 260.309C353.024 249.458 352.011 238.832 349.253 228.993C346.495 219.154 351.279 209.765 351.279 209.765C351.279 209.765 352.799 206.448 352.011 193.011C351.167 179.574 337.996 140.724 332.536 131.054C327.076 121.384 309.459 100.75 291.447 95.8026C273.436 90.8551 184.955 111.151 184.955 111.151L152.14 173.67L148.594 227.588L128.838 196.722C128.838 196.722 112.965 188.794 102.721 193.742C92.4774 198.689 91.0703 223.877 98.1623 235.684C105.198 247.49 112.965 255.924 112.965 255.924C112.965 255.924 119.326 260.309 120.17 264.919C121.014 269.361 131.934 277.457 146.005 273.69Z" fill="#B68173"/>
<path d="M314.018 112.051C314.018 112.051 287.958 127.175 252.216 132.235C216.475 137.295 209.777 165.012 209.777 165.012C209.777 165.012 293.023 147.358 295.95 187.67C298.877 227.981 272.423 252.325 272.423 252.325C272.423 252.325 263.586 269.08 278.333 268.686C293.023 268.292 295.556 262.389 301.86 271.666C308.164 280.942 314.074 271.666 314.074 271.666C314.074 271.666 321.223 269.361 318.296 275.77C315.369 282.179 329.722 270.204 325.838 259.072C321.954 247.94 319.084 180.979 321.617 180.136C324.149 179.293 341.598 175.526 347.17 178.899C352.686 182.16 327.977 105.304 314.018 112.051Z" fill="#C1897A"/>
<path d="M351.729 254.012C351.729 254.012 350.773 270.935 340.416 291.681C330.059 312.371 328.652 325.583 317.339 336.378C306.025 347.228 303.211 371.685 291.447 374.496C279.459 368.874 271.185 362.802 271.185 362.802C271.185 362.802 296.626 343.911 296.175 333.566C302.761 331.093 313.624 324.627 317.845 314.282C322.067 303.937 308.446 291.681 296.175 296.853C302.761 285.103 314.074 284.147 314.074 284.147C314.074 284.147 322.067 260.14 332.48 285.103C348.521 268.18 351.729 254.012 351.729 254.012Z" fill="#C1897A"/>
<path d="M262.291 377.307L209.721 456.918C209.721 456.918 229.027 457.143 236.006 453.207C242.985 449.272 268.483 377.251 268.483 377.251" fill="#C1897A"/>
<path d="M128.388 197.509L152.253 242.768L158.669 220.11L160.808 168.273L187.657 145.953L189.57 110.983C189.57 110.983 127.262 91.2487 106.887 118.685C104.523 136.283 95.0666 198.296 94.4474 206.673C94.4474 206.673 102.384 188.85 120.677 198.296L128.388 197.509Z" fill="#262222"/>
<path d="M311.429 106.597C315.031 109.408 318.746 112.782 322.348 116.886C339.178 136.058 342.386 158.828 343.061 170.41C350.041 186.208 350.604 181.429 352.292 194.135C353.925 206.842 357.245 166.193 357.245 166.193C357.02 160.233 355.726 145.84 345.819 131.56C333.718 114.131 316.776 108.228 311.429 106.597Z" fill="#262622"/>
<path d="M99.7383 194.641C99.7383 194.641 96.9803 189.132 127.093 186.489C157.206 183.847 212.479 178.618 212.479 178.618C212.479 178.618 269.777 165.237 293.249 191.156C307.658 190.425 319.703 194.135 320.435 194.641C321.166 195.147 352.799 175.357 385.613 203.018C385.613 209.259 385.613 215.893 385.613 215.893L381.111 219.773C381.111 219.773 372.33 259.972 346.776 258.96C321.223 257.948 312.048 237.426 309.515 213.138C315.425 204.761 317.283 200.713 317.283 200.713C317.283 200.713 316.157 197.171 305.688 196.834C295.275 196.497 294.825 198.746 294.825 198.746C294.825 198.746 293.586 203.693 297.695 207.91C297.751 212.239 296.175 214.544 296.175 214.544C296.175 214.544 280.528 250.076 253.342 248.052C226.156 246.028 216.7 231.579 215.743 210.946C215.18 198.352 214.055 194.135 208.876 194.135C203.698 194.135 124.673 196.553 124.673 196.553L100.47 197.677L99.7383 194.641Z" fill="black"/>
<path d="M94.5037 111.77C94.5037 111.77 112.909 128.074 151.24 119.528C189.57 110.983 230.04 106.654 258.689 106.935C287.339 107.216 331.016 116.549 341.936 102.887C352.855 89.1684 353.418 61.732 311.429 40.3113C269.44 18.8907 211.972 23.4447 169.645 46.4396C127.318 69.4345 94.2786 99.4571 94.5037 111.77Z" fill="#1D1818"/>
<path d="M303.661 377.87H274.393L163.96 317.993L151.24 259.747L165.593 227.138L168.913 176.2L228.239 116.492L319.647 119.641L351.673 185.983L339.009 229.274L357.245 270.429L336.251 322.322L303.661 377.87Z" stroke="black" stroke-width="3" stroke-miterlimit="10"/>
<path d="M163.96 317.993C180.565 296.347 197.169 274.702 213.717 253.056C233.923 294.661 254.186 336.265 274.393 377.87L295.556 322.266L303.661 377.87L335.688 291.287L357.189 270.429L338.784 269.642L317.001 210.946L283.455 265.032C260.153 261.04 236.907 257.104 213.604 253.112C197.563 244.454 181.521 235.852 165.48 227.194L218.501 186.264L228.126 116.549L316.945 211.002C317.789 180.586 318.69 150.17 319.534 119.697" stroke="black" stroke-width="3" stroke-miterlimit="10"/>
<path d="M295.556 322.322L283.567 264.975L338.84 269.642L295.556 322.322Z" stroke="black" stroke-width="3" stroke-miterlimit="10"/>
<path d="M137.45 264.975L155.743 322.322L266.4 382.761L236.006 453.77L209.721 457.48L151.24 417.562L126.699 339.301L137.45 264.975Z" stroke="black" stroke-width="3" stroke-miterlimit="10"/>
<path d="M155.743 322.322L125.799 333.173" stroke="black" stroke-width="3" stroke-miterlimit="10"/>
<path d="M260.997 379.781C243.886 405.7 226.831 431.562 209.721 457.48L151.24 417.562C179.551 417.562 207.807 417.562 236.119 417.562" stroke="black" stroke-width="3" stroke-miterlimit="10"/>
<path d="M121.746 206.785L142.065 243.33L129.232 264.975L107.731 236.414L102.44 213.757L111.615 202.906L121.746 206.785Z" stroke="black" stroke-width="3" stroke-miterlimit="10"/>
<path d="M129.232 264.975L121.746 224.608H113.134" stroke="black" stroke-width="3" stroke-miterlimit="10"/>
<path d="M113.134 123.352L102.44 185.533L130.921 182.441L148.538 227.475L151.24 160.571L181.24 141.005L180.396 119.528L113.134 123.352Z" stroke="black" stroke-width="3" stroke-miterlimit="10"/>
<path d="M180.396 119.528L129.232 142.523L102.44 185.533L151.24 160.571L180.396 119.528Z" stroke="black" stroke-width="3" stroke-miterlimit="10"/>
<path d="M113.134 109.24L184.111 105.642L233.248 99.1198H307.489L321.56 104.18L338.84 99.1198L341.936 81.2973L324.769 53.0738L283.567 33.0587L248.558 30.5849L201.334 38.7933L156.643 62.0131L113.134 109.24Z" stroke="black" stroke-width="3" stroke-miterlimit="10"/>
<path d="M184.111 105.642L234.036 60.3265L321.56 104.18L341.936 81.2974L299.721 63.3062L234.036 60.3265L113.134 109.24L186.137 60.3265L283.567 33.0587L299.721 63.3062L324.769 53.0738" stroke="black" stroke-width="3" stroke-miterlimit="10"/>
<path d="M186.137 60.3265L188.951 78.5425L158.219 106.935" stroke="black" stroke-width="3" stroke-miterlimit="10"/>
<path d="M266.4 382.761L247.939 476.315H311.204L346.551 427.12L330.397 405.812L266.4 382.761Z" stroke="black" stroke-width="3" stroke-miterlimit="10"/>
<path d="M346.551 427.12L247.939 476.315" stroke="black" stroke-width="3" stroke-miterlimit="10"/>
<path d="M266.4 382.761L292.292 424.759L330.397 405.812" stroke="black" stroke-width="3" stroke-miterlimit="10"/>
<path d="M118.819 327.719V357.18L151.24 441.85L215.18 476.315L108.294 479.519L20.7131 429.538L19.306 403.732L89.6631 361.228L118.819 327.719Z" stroke="black" stroke-width="3" stroke-miterlimit="10"/>
<path d="M89.6631 361.228L125.799 437.971L175.837 477.495L151.24 441.85L89.6631 361.228Z" stroke="black" stroke-width="3" stroke-miterlimit="10"/>
<path d="M19.306 403.732L84.6537 419.362L105.311 394.455" stroke="black" stroke-width="3" stroke-miterlimit="10"/>
<path d="M84.6537 419.362L108.294 479.519" stroke="black" stroke-width="3" stroke-miterlimit="10"/>
</svg>
