<svg width="50" height="50" viewBox="0 0 50 50" fill="none" xmlns="http://www.w3.org/2000/svg">
<path d="M45.025 14.325C46.525 12.075 48.025 9.82501 49.525 7.57501C44.275 7.57501 39.025 7.57501 33.775 7.57501H27.025H24.775V14.325H27.025H29.275V32.325C29.275 32.325 29.275 38.225 33.525 41.475C36.025 43.375 39.6 43.525 40.525 43.575C41.45 43.65 42.225 43.6 42.775 43.575C42.775 40.575 42.775 37.575 42.775 34.575C42.025 34.575 41.275 34.575 40.525 34.575C40.525 34.575 38.275 34.575 38.275 32.325V14.325C40.525 14.325 42.775 14.325 45.025 14.325Z" fill="white"/>
<path d="M9.02502 7.57501C7.52502 9.82501 6.02502 12.075 4.52502 14.325C7.52502 14.325 10.525 14.325 13.525 14.325V32.325C13.525 32.325 13.525 34.575 11.275 34.575C9.02502 34.575 9.02502 32.325 9.02502 32.325H0.0250244C0.0250244 32.325 0.0250244 43.575 11.275 43.575C22.525 43.575 22.525 32.325 22.525 32.325V14.325V7.57501H18.025C15.025 7.57501 12.025 7.57501 9.02502 7.57501Z" fill="white"/>
</svg>
